<?xml version="1.0" standalone="no"?>
<!DOCTYPE svg PUBLIC "-//W3C//DTD SVG 20010904//EN"
 "http://www.w3.org/TR/2001/REC-SVG-20010904/DTD/svg10.dtd">
<svg version="1.0" xmlns="http://www.w3.org/2000/svg"
 width="128.000000pt" height="128.000000pt" viewBox="0 0 128.000000 128.000000"
 preserveAspectRatio="xMidYMid meet">
<metadata>
Created by potrace 1.11, written by Peter Selinger 2001-2013
</metadata>
<g transform="translate(0.000000,128.000000) scale(0.100000,-0.100000)"
fill="#000000" stroke="none">
<path d="M755 1014 c-251 -27 -557 -132 -660 -226 -72 -66 -111 -152 -80 -178
11 -9 11 -18 4 -38 -6 -14 -13 -59 -16 -98 -9 -122 21 -156 167 -188 67 -15
234 -28 330 -27 99 2 329 82 600 208 98 46 133 76 160 134 20 45 25 165 9 207
-6 15 -5 31 2 43 9 18 5 26 -31 60 -105 100 -242 129 -485 103z"/>
</g>
</svg>
